G04 #@! TF.GenerationSoftware,KiCad,Pcbnew,5.1.6-c6e7f7d~86~ubuntu16.04.1*
G04 #@! TF.CreationDate,2020-06-21T22:44:54+09:00*
G04 #@! TF.ProjectId,Akashi-05,416b6173-6869-42d3-9035-2e6b69636164,rev?*
G04 #@! TF.SameCoordinates,Original*
G04 #@! TF.FileFunction,Legend,Top*
G04 #@! TF.FilePolarity,Positive*
%FSLAX46Y46*%
G04 Gerber Fmt 4.6, Leading zero omitted, Abs format (unit mm)*
G04 Created by KiCad (PCBNEW 5.1.6-c6e7f7d~86~ubuntu16.04.1) date 2020-06-21 22:44:54*
%MOMM*%
%LPD*%
G01*
G04 APERTURE LIST*
%ADD10C,0.127000*%
%ADD11C,0.120000*%
%ADD12C,0.150000*%
G04 APERTURE END LIST*
D10*
X157340904Y-96647000D02*
X157244142Y-96598619D01*
X157099000Y-96598619D01*
X156953857Y-96647000D01*
X156857095Y-96743761D01*
X156808714Y-96840523D01*
X156760333Y-97034047D01*
X156760333Y-97179190D01*
X156808714Y-97372714D01*
X156857095Y-97469476D01*
X156953857Y-97566238D01*
X157099000Y-97614619D01*
X157195761Y-97614619D01*
X157340904Y-97566238D01*
X157389285Y-97517857D01*
X157389285Y-97179190D01*
X157195761Y-97179190D01*
X157824714Y-97614619D02*
X157824714Y-96598619D01*
X158405285Y-97614619D01*
X158405285Y-96598619D01*
X158889095Y-97614619D02*
X158889095Y-96598619D01*
X159131000Y-96598619D01*
X159276142Y-96647000D01*
X159372904Y-96743761D01*
X159421285Y-96840523D01*
X159469666Y-97034047D01*
X159469666Y-97179190D01*
X159421285Y-97372714D01*
X159372904Y-97469476D01*
X159276142Y-97566238D01*
X159131000Y-97614619D01*
X158889095Y-97614619D01*
X147688904Y-95709619D02*
X147688904Y-94693619D01*
X148269476Y-95709619D02*
X147834047Y-95129047D01*
X148269476Y-94693619D02*
X147688904Y-95274190D01*
D11*
X147280000Y-93980000D02*
G75*
G03*
X147280000Y-93980000I-2500000J0D01*
G01*
X147340000Y-95525000D02*
X147340000Y-92435000D01*
X141790000Y-93979538D02*
G75*
G03*
X147340000Y-95524830I2990000J-462D01*
G01*
X141790000Y-93980462D02*
G75*
G02*
X147340000Y-92435170I2990000J462D01*
G01*
X153670000Y-97850000D02*
X156270000Y-97850000D01*
X156270000Y-97850000D02*
X156270000Y-95190000D01*
X156270000Y-95190000D02*
X153670000Y-95190000D01*
X153670000Y-95190000D02*
X153670000Y-97850000D01*
X152400000Y-97850000D02*
X151070000Y-97850000D01*
X151070000Y-97850000D02*
X151070000Y-96520000D01*
X154270000Y-90130000D02*
X154270000Y-92750000D01*
X154270000Y-92750000D02*
X160690000Y-92750000D01*
X160690000Y-92750000D02*
X160690000Y-90130000D01*
X160690000Y-90130000D02*
X154270000Y-90130000D01*
X153380000Y-91440000D02*
X154270000Y-91440000D01*
X161580000Y-91440000D02*
X160690000Y-91440000D01*
X129810000Y-90110000D02*
X128560000Y-90110000D01*
X128560000Y-90110000D02*
X128560000Y-97850000D01*
X128560000Y-97850000D02*
X133060000Y-97850000D01*
X133060000Y-97850000D02*
X133060000Y-90110000D01*
X133060000Y-90110000D02*
X131810000Y-90110000D01*
X131810000Y-90110000D02*
G75*
G02*
X129810000Y-90110000I-1000000J0D01*
G01*
D12*
X144041904Y-98392380D02*
X144041904Y-97392380D01*
X144280000Y-97392380D01*
X144422857Y-97440000D01*
X144518095Y-97535238D01*
X144565714Y-97630476D01*
X144613333Y-97820952D01*
X144613333Y-97963809D01*
X144565714Y-98154285D01*
X144518095Y-98249523D01*
X144422857Y-98344761D01*
X144280000Y-98392380D01*
X144041904Y-98392380D01*
X145565714Y-98392380D02*
X144994285Y-98392380D01*
X145280000Y-98392380D02*
X145280000Y-97392380D01*
X145184761Y-97535238D01*
X145089523Y-97630476D01*
X144994285Y-97678095D01*
X153336666Y-93432380D02*
X153336666Y-94146666D01*
X153289047Y-94289523D01*
X153193809Y-94384761D01*
X153050952Y-94432380D01*
X152955714Y-94432380D01*
X154336666Y-94432380D02*
X153765238Y-94432380D01*
X154050952Y-94432380D02*
X154050952Y-93432380D01*
X153955714Y-93575238D01*
X153860476Y-93670476D01*
X153765238Y-93718095D01*
X157313333Y-89582380D02*
X156980000Y-89106190D01*
X156741904Y-89582380D02*
X156741904Y-88582380D01*
X157122857Y-88582380D01*
X157218095Y-88630000D01*
X157265714Y-88677619D01*
X157313333Y-88772857D01*
X157313333Y-88915714D01*
X157265714Y-89010952D01*
X157218095Y-89058571D01*
X157122857Y-89106190D01*
X156741904Y-89106190D01*
X158265714Y-89582380D02*
X157694285Y-89582380D01*
X157980000Y-89582380D02*
X157980000Y-88582380D01*
X157884761Y-88725238D01*
X157789523Y-88820476D01*
X157694285Y-88868095D01*
X130048095Y-88562380D02*
X130048095Y-89371904D01*
X130095714Y-89467142D01*
X130143333Y-89514761D01*
X130238571Y-89562380D01*
X130429047Y-89562380D01*
X130524285Y-89514761D01*
X130571904Y-89467142D01*
X130619523Y-89371904D01*
X130619523Y-88562380D01*
X131619523Y-89562380D02*
X131048095Y-89562380D01*
X131333809Y-89562380D02*
X131333809Y-88562380D01*
X131238571Y-88705238D01*
X131143333Y-88800476D01*
X131048095Y-88848095D01*
M02*
