G04 #@! TF.GenerationSoftware,KiCad,Pcbnew,5.1.6-c6e7f7d~86~ubuntu16.04.1*
G04 #@! TF.CreationDate,2020-06-21T22:44:54+09:00*
G04 #@! TF.ProjectId,Akashi-05,416b6173-6869-42d3-9035-2e6b69636164,rev?*
G04 #@! TF.SameCoordinates,Original*
G04 #@! TF.FileFunction,Copper,L2,Bot*
G04 #@! TF.FilePolarity,Positive*
%FSLAX46Y46*%
G04 Gerber Fmt 4.6, Leading zero omitted, Abs format (unit mm)*
G04 Created by KiCad (PCBNEW 5.1.6-c6e7f7d~86~ubuntu16.04.1) date 2020-06-21 22:44:54*
%MOMM*%
%LPD*%
G01*
G04 APERTURE LIST*
G04 #@! TA.AperFunction,ComponentPad*
%ADD10R,1.800000X1.800000*%
G04 #@! TD*
G04 #@! TA.AperFunction,ComponentPad*
%ADD11C,1.800000*%
G04 #@! TD*
G04 #@! TA.AperFunction,ComponentPad*
%ADD12R,1.700000X1.700000*%
G04 #@! TD*
G04 #@! TA.AperFunction,ComponentPad*
%ADD13O,1.700000X1.700000*%
G04 #@! TD*
G04 #@! TA.AperFunction,ComponentPad*
%ADD14C,1.600000*%
G04 #@! TD*
G04 #@! TA.AperFunction,ComponentPad*
%ADD15O,1.600000X1.600000*%
G04 #@! TD*
G04 #@! TA.AperFunction,ComponentPad*
%ADD16R,2.400000X1.600000*%
G04 #@! TD*
G04 #@! TA.AperFunction,ComponentPad*
%ADD17O,2.400000X1.600000*%
G04 #@! TD*
G04 #@! TA.AperFunction,Conductor*
%ADD18C,0.250000*%
G04 #@! TD*
G04 #@! TA.AperFunction,Conductor*
%ADD19C,0.254000*%
G04 #@! TD*
G04 APERTURE END LIST*
D10*
X146050000Y-93980000D03*
D11*
X143510000Y-93980000D03*
D12*
X152400000Y-96520000D03*
D13*
X154940000Y-96520000D03*
D14*
X152400000Y-91440000D03*
D15*
X162560000Y-91440000D03*
D16*
X127000000Y-91440000D03*
D17*
X134620000Y-96520000D03*
X127000000Y-93980000D03*
X134620000Y-93980000D03*
X127000000Y-96520000D03*
X134620000Y-91440000D03*
D18*
X146050000Y-93980000D02*
X147955000Y-93980000D01*
X147955000Y-93980000D02*
X150495000Y-91440000D01*
X150495000Y-91440000D02*
X152400000Y-91440000D01*
X143510000Y-93980000D02*
X140970000Y-93980000D01*
X140970000Y-93980000D02*
X138430000Y-91440000D01*
X138430000Y-91440000D02*
X134620000Y-91440000D01*
X127000000Y-91440000D02*
X127000000Y-93980000D01*
X127000000Y-93980000D02*
X129540000Y-93980000D01*
X132080000Y-96520000D02*
X134620000Y-96520000D01*
X129540000Y-93980000D02*
X132080000Y-96520000D01*
X134620000Y-96520000D02*
X152400000Y-96520000D01*
D19*
G36*
X169418000Y-98298000D02*
G01*
X156845000Y-98298000D01*
X156820224Y-98300440D01*
X156796399Y-98307667D01*
X156774443Y-98319403D01*
X156755197Y-98335197D01*
X156739403Y-98354443D01*
X156727667Y-98376399D01*
X156720440Y-98400224D01*
X156718000Y-98425000D01*
X156718000Y-149098000D01*
X132842000Y-149098000D01*
X132842000Y-98425000D01*
X132839560Y-98400224D01*
X132832333Y-98376399D01*
X132820597Y-98354443D01*
X132804803Y-98335197D01*
X132785557Y-98319403D01*
X132763601Y-98307667D01*
X132739776Y-98300440D01*
X132715000Y-98298000D01*
X120142000Y-98298000D01*
X120142000Y-96869039D01*
X125208096Y-96869039D01*
X125225633Y-96951818D01*
X125336285Y-97211646D01*
X125495500Y-97444895D01*
X125697161Y-97642601D01*
X125933517Y-97797166D01*
X126195486Y-97902650D01*
X126473000Y-97955000D01*
X126873000Y-97955000D01*
X126873000Y-96647000D01*
X127127000Y-96647000D01*
X127127000Y-97955000D01*
X127527000Y-97955000D01*
X127804514Y-97902650D01*
X128066483Y-97797166D01*
X128302839Y-97642601D01*
X128504500Y-97444895D01*
X128663715Y-97211646D01*
X128774367Y-96951818D01*
X128791904Y-96869039D01*
X128669915Y-96647000D01*
X127127000Y-96647000D01*
X126873000Y-96647000D01*
X125330085Y-96647000D01*
X125208096Y-96869039D01*
X120142000Y-96869039D01*
X120142000Y-93980000D01*
X125158057Y-93980000D01*
X125185764Y-94261309D01*
X125267818Y-94531808D01*
X125401068Y-94781101D01*
X125580392Y-94999608D01*
X125798899Y-95178932D01*
X125926741Y-95247265D01*
X125697161Y-95397399D01*
X125495500Y-95595105D01*
X125336285Y-95828354D01*
X125225633Y-96088182D01*
X125208096Y-96170961D01*
X125330085Y-96393000D01*
X126873000Y-96393000D01*
X126873000Y-96373000D01*
X127127000Y-96373000D01*
X127127000Y-96393000D01*
X128669915Y-96393000D01*
X128791904Y-96170961D01*
X128774367Y-96088182D01*
X128663715Y-95828354D01*
X128504500Y-95595105D01*
X128302839Y-95397399D01*
X128073259Y-95247265D01*
X128201101Y-95178932D01*
X128419608Y-94999608D01*
X128598932Y-94781101D01*
X128620901Y-94740000D01*
X129225199Y-94740000D01*
X131516205Y-97031008D01*
X131539999Y-97060001D01*
X131568992Y-97083795D01*
X131568996Y-97083799D01*
X131639685Y-97141811D01*
X131655724Y-97154974D01*
X131787753Y-97225546D01*
X131931014Y-97269003D01*
X132042667Y-97280000D01*
X132042676Y-97280000D01*
X132079999Y-97283676D01*
X132117322Y-97280000D01*
X132999099Y-97280000D01*
X133021068Y-97321101D01*
X133200392Y-97539608D01*
X133418899Y-97718932D01*
X133668192Y-97852182D01*
X133938691Y-97934236D01*
X134149508Y-97955000D01*
X135090492Y-97955000D01*
X135301309Y-97934236D01*
X135571808Y-97852182D01*
X135821101Y-97718932D01*
X136039608Y-97539608D01*
X136218932Y-97321101D01*
X136240901Y-97280000D01*
X150911928Y-97280000D01*
X150911928Y-97370000D01*
X150924188Y-97494482D01*
X150960498Y-97614180D01*
X151019463Y-97724494D01*
X151098815Y-97821185D01*
X151195506Y-97900537D01*
X151305820Y-97959502D01*
X151425518Y-97995812D01*
X151550000Y-98008072D01*
X153250000Y-98008072D01*
X153374482Y-97995812D01*
X153494180Y-97959502D01*
X153604494Y-97900537D01*
X153701185Y-97821185D01*
X153780537Y-97724494D01*
X153839502Y-97614180D01*
X153863966Y-97533534D01*
X153939731Y-97617588D01*
X154173080Y-97791641D01*
X154435901Y-97916825D01*
X154583110Y-97961476D01*
X154813000Y-97840155D01*
X154813000Y-96647000D01*
X155067000Y-96647000D01*
X155067000Y-97840155D01*
X155296890Y-97961476D01*
X155444099Y-97916825D01*
X155706920Y-97791641D01*
X155940269Y-97617588D01*
X156135178Y-97401355D01*
X156284157Y-97151252D01*
X156381481Y-96876891D01*
X156260814Y-96647000D01*
X155067000Y-96647000D01*
X154813000Y-96647000D01*
X154793000Y-96647000D01*
X154793000Y-96393000D01*
X154813000Y-96393000D01*
X154813000Y-95199845D01*
X155067000Y-95199845D01*
X155067000Y-96393000D01*
X156260814Y-96393000D01*
X156381481Y-96163109D01*
X156284157Y-95888748D01*
X156135178Y-95638645D01*
X155940269Y-95422412D01*
X155706920Y-95248359D01*
X155444099Y-95123175D01*
X155296890Y-95078524D01*
X155067000Y-95199845D01*
X154813000Y-95199845D01*
X154583110Y-95078524D01*
X154435901Y-95123175D01*
X154173080Y-95248359D01*
X153939731Y-95422412D01*
X153863966Y-95506466D01*
X153839502Y-95425820D01*
X153780537Y-95315506D01*
X153701185Y-95218815D01*
X153604494Y-95139463D01*
X153494180Y-95080498D01*
X153374482Y-95044188D01*
X153250000Y-95031928D01*
X151550000Y-95031928D01*
X151425518Y-95044188D01*
X151305820Y-95080498D01*
X151195506Y-95139463D01*
X151098815Y-95218815D01*
X151019463Y-95315506D01*
X150960498Y-95425820D01*
X150924188Y-95545518D01*
X150911928Y-95670000D01*
X150911928Y-95760000D01*
X136240901Y-95760000D01*
X136218932Y-95718899D01*
X136039608Y-95500392D01*
X135821101Y-95321068D01*
X135693259Y-95252735D01*
X135922839Y-95102601D01*
X136124500Y-94904895D01*
X136283715Y-94671646D01*
X136394367Y-94411818D01*
X136411904Y-94329039D01*
X136289915Y-94107000D01*
X134747000Y-94107000D01*
X134747000Y-94127000D01*
X134493000Y-94127000D01*
X134493000Y-94107000D01*
X132950085Y-94107000D01*
X132828096Y-94329039D01*
X132845633Y-94411818D01*
X132956285Y-94671646D01*
X133115500Y-94904895D01*
X133317161Y-95102601D01*
X133546741Y-95252735D01*
X133418899Y-95321068D01*
X133200392Y-95500392D01*
X133021068Y-95718899D01*
X132999099Y-95760000D01*
X132394803Y-95760000D01*
X130103804Y-93469003D01*
X130080001Y-93439999D01*
X129964276Y-93345026D01*
X129832247Y-93274454D01*
X129688986Y-93230997D01*
X129577333Y-93220000D01*
X129577322Y-93220000D01*
X129540000Y-93216324D01*
X129502678Y-93220000D01*
X128620901Y-93220000D01*
X128598932Y-93178899D01*
X128419608Y-92960392D01*
X128306518Y-92867581D01*
X128324482Y-92865812D01*
X128444180Y-92829502D01*
X128554494Y-92770537D01*
X128651185Y-92691185D01*
X128730537Y-92594494D01*
X128789502Y-92484180D01*
X128825812Y-92364482D01*
X128838072Y-92240000D01*
X128838072Y-91440000D01*
X132778057Y-91440000D01*
X132805764Y-91721309D01*
X132887818Y-91991808D01*
X133021068Y-92241101D01*
X133200392Y-92459608D01*
X133418899Y-92638932D01*
X133546741Y-92707265D01*
X133317161Y-92857399D01*
X133115500Y-93055105D01*
X132956285Y-93288354D01*
X132845633Y-93548182D01*
X132828096Y-93630961D01*
X132950085Y-93853000D01*
X134493000Y-93853000D01*
X134493000Y-93833000D01*
X134747000Y-93833000D01*
X134747000Y-93853000D01*
X136289915Y-93853000D01*
X136411904Y-93630961D01*
X136394367Y-93548182D01*
X136283715Y-93288354D01*
X136124500Y-93055105D01*
X135922839Y-92857399D01*
X135693259Y-92707265D01*
X135821101Y-92638932D01*
X136039608Y-92459608D01*
X136218932Y-92241101D01*
X136240901Y-92200000D01*
X138115199Y-92200000D01*
X140406205Y-94491008D01*
X140429999Y-94520001D01*
X140458992Y-94543795D01*
X140458996Y-94543799D01*
X140529685Y-94601811D01*
X140545724Y-94614974D01*
X140677753Y-94685546D01*
X140821014Y-94729003D01*
X140932667Y-94740000D01*
X140932676Y-94740000D01*
X140969999Y-94743676D01*
X141007322Y-94740000D01*
X142171687Y-94740000D01*
X142317688Y-94958505D01*
X142531495Y-95172312D01*
X142782905Y-95340299D01*
X143062257Y-95456011D01*
X143358816Y-95515000D01*
X143661184Y-95515000D01*
X143957743Y-95456011D01*
X144237095Y-95340299D01*
X144488505Y-95172312D01*
X144554944Y-95105873D01*
X144560498Y-95124180D01*
X144619463Y-95234494D01*
X144698815Y-95331185D01*
X144795506Y-95410537D01*
X144905820Y-95469502D01*
X145025518Y-95505812D01*
X145150000Y-95518072D01*
X146950000Y-95518072D01*
X147074482Y-95505812D01*
X147194180Y-95469502D01*
X147304494Y-95410537D01*
X147401185Y-95331185D01*
X147480537Y-95234494D01*
X147539502Y-95124180D01*
X147575812Y-95004482D01*
X147588072Y-94880000D01*
X147588072Y-94740000D01*
X147917678Y-94740000D01*
X147955000Y-94743676D01*
X147992322Y-94740000D01*
X147992333Y-94740000D01*
X148103986Y-94729003D01*
X148247247Y-94685546D01*
X148379276Y-94614974D01*
X148495001Y-94520001D01*
X148518804Y-94490997D01*
X150809803Y-92200000D01*
X151181957Y-92200000D01*
X151285363Y-92354759D01*
X151485241Y-92554637D01*
X151720273Y-92711680D01*
X151981426Y-92819853D01*
X152258665Y-92875000D01*
X152541335Y-92875000D01*
X152818574Y-92819853D01*
X153079727Y-92711680D01*
X153314759Y-92554637D01*
X153514637Y-92354759D01*
X153671680Y-92119727D01*
X153779853Y-91858574D01*
X153793684Y-91789039D01*
X161168096Y-91789039D01*
X161208754Y-91923087D01*
X161328963Y-92177420D01*
X161496481Y-92403414D01*
X161704869Y-92592385D01*
X161946119Y-92737070D01*
X162210960Y-92831909D01*
X162433000Y-92710624D01*
X162433000Y-91567000D01*
X162687000Y-91567000D01*
X162687000Y-92710624D01*
X162909040Y-92831909D01*
X163173881Y-92737070D01*
X163415131Y-92592385D01*
X163623519Y-92403414D01*
X163791037Y-92177420D01*
X163911246Y-91923087D01*
X163951904Y-91789039D01*
X163829915Y-91567000D01*
X162687000Y-91567000D01*
X162433000Y-91567000D01*
X161290085Y-91567000D01*
X161168096Y-91789039D01*
X153793684Y-91789039D01*
X153835000Y-91581335D01*
X153835000Y-91298665D01*
X153793685Y-91090961D01*
X161168096Y-91090961D01*
X161290085Y-91313000D01*
X162433000Y-91313000D01*
X162433000Y-90169376D01*
X162687000Y-90169376D01*
X162687000Y-91313000D01*
X163829915Y-91313000D01*
X163951904Y-91090961D01*
X163911246Y-90956913D01*
X163791037Y-90702580D01*
X163623519Y-90476586D01*
X163415131Y-90287615D01*
X163173881Y-90142930D01*
X162909040Y-90048091D01*
X162687000Y-90169376D01*
X162433000Y-90169376D01*
X162210960Y-90048091D01*
X161946119Y-90142930D01*
X161704869Y-90287615D01*
X161496481Y-90476586D01*
X161328963Y-90702580D01*
X161208754Y-90956913D01*
X161168096Y-91090961D01*
X153793685Y-91090961D01*
X153779853Y-91021426D01*
X153671680Y-90760273D01*
X153514637Y-90525241D01*
X153314759Y-90325363D01*
X153079727Y-90168320D01*
X152818574Y-90060147D01*
X152541335Y-90005000D01*
X152258665Y-90005000D01*
X151981426Y-90060147D01*
X151720273Y-90168320D01*
X151485241Y-90325363D01*
X151285363Y-90525241D01*
X151181957Y-90680000D01*
X150532322Y-90680000D01*
X150494999Y-90676324D01*
X150457676Y-90680000D01*
X150457667Y-90680000D01*
X150346014Y-90690997D01*
X150202753Y-90734454D01*
X150070724Y-90805026D01*
X150070722Y-90805027D01*
X150070723Y-90805027D01*
X149983996Y-90876201D01*
X149983992Y-90876205D01*
X149954999Y-90899999D01*
X149931205Y-90928992D01*
X147640199Y-93220000D01*
X147588072Y-93220000D01*
X147588072Y-93080000D01*
X147575812Y-92955518D01*
X147539502Y-92835820D01*
X147480537Y-92725506D01*
X147401185Y-92628815D01*
X147304494Y-92549463D01*
X147194180Y-92490498D01*
X147074482Y-92454188D01*
X146950000Y-92441928D01*
X145150000Y-92441928D01*
X145025518Y-92454188D01*
X144905820Y-92490498D01*
X144795506Y-92549463D01*
X144698815Y-92628815D01*
X144619463Y-92725506D01*
X144560498Y-92835820D01*
X144554944Y-92854127D01*
X144488505Y-92787688D01*
X144237095Y-92619701D01*
X143957743Y-92503989D01*
X143661184Y-92445000D01*
X143358816Y-92445000D01*
X143062257Y-92503989D01*
X142782905Y-92619701D01*
X142531495Y-92787688D01*
X142317688Y-93001495D01*
X142171687Y-93220000D01*
X141284803Y-93220000D01*
X138993804Y-90929003D01*
X138970001Y-90899999D01*
X138854276Y-90805026D01*
X138722247Y-90734454D01*
X138578986Y-90690997D01*
X138467333Y-90680000D01*
X138467322Y-90680000D01*
X138430000Y-90676324D01*
X138392678Y-90680000D01*
X136240901Y-90680000D01*
X136218932Y-90638899D01*
X136039608Y-90420392D01*
X135821101Y-90241068D01*
X135571808Y-90107818D01*
X135301309Y-90025764D01*
X135090492Y-90005000D01*
X134149508Y-90005000D01*
X133938691Y-90025764D01*
X133668192Y-90107818D01*
X133418899Y-90241068D01*
X133200392Y-90420392D01*
X133021068Y-90638899D01*
X132887818Y-90888192D01*
X132805764Y-91158691D01*
X132778057Y-91440000D01*
X128838072Y-91440000D01*
X128838072Y-90640000D01*
X128825812Y-90515518D01*
X128789502Y-90395820D01*
X128730537Y-90285506D01*
X128651185Y-90188815D01*
X128554494Y-90109463D01*
X128444180Y-90050498D01*
X128324482Y-90014188D01*
X128200000Y-90001928D01*
X125800000Y-90001928D01*
X125675518Y-90014188D01*
X125555820Y-90050498D01*
X125445506Y-90109463D01*
X125348815Y-90188815D01*
X125269463Y-90285506D01*
X125210498Y-90395820D01*
X125174188Y-90515518D01*
X125161928Y-90640000D01*
X125161928Y-92240000D01*
X125174188Y-92364482D01*
X125210498Y-92484180D01*
X125269463Y-92594494D01*
X125348815Y-92691185D01*
X125445506Y-92770537D01*
X125555820Y-92829502D01*
X125675518Y-92865812D01*
X125693482Y-92867581D01*
X125580392Y-92960392D01*
X125401068Y-93178899D01*
X125267818Y-93428192D01*
X125185764Y-93698691D01*
X125158057Y-93980000D01*
X120142000Y-93980000D01*
X120142000Y-54102000D01*
X169418000Y-54102000D01*
X169418000Y-98298000D01*
G37*
X169418000Y-98298000D02*
X156845000Y-98298000D01*
X156820224Y-98300440D01*
X156796399Y-98307667D01*
X156774443Y-98319403D01*
X156755197Y-98335197D01*
X156739403Y-98354443D01*
X156727667Y-98376399D01*
X156720440Y-98400224D01*
X156718000Y-98425000D01*
X156718000Y-149098000D01*
X132842000Y-149098000D01*
X132842000Y-98425000D01*
X132839560Y-98400224D01*
X132832333Y-98376399D01*
X132820597Y-98354443D01*
X132804803Y-98335197D01*
X132785557Y-98319403D01*
X132763601Y-98307667D01*
X132739776Y-98300440D01*
X132715000Y-98298000D01*
X120142000Y-98298000D01*
X120142000Y-96869039D01*
X125208096Y-96869039D01*
X125225633Y-96951818D01*
X125336285Y-97211646D01*
X125495500Y-97444895D01*
X125697161Y-97642601D01*
X125933517Y-97797166D01*
X126195486Y-97902650D01*
X126473000Y-97955000D01*
X126873000Y-97955000D01*
X126873000Y-96647000D01*
X127127000Y-96647000D01*
X127127000Y-97955000D01*
X127527000Y-97955000D01*
X127804514Y-97902650D01*
X128066483Y-97797166D01*
X128302839Y-97642601D01*
X128504500Y-97444895D01*
X128663715Y-97211646D01*
X128774367Y-96951818D01*
X128791904Y-96869039D01*
X128669915Y-96647000D01*
X127127000Y-96647000D01*
X126873000Y-96647000D01*
X125330085Y-96647000D01*
X125208096Y-96869039D01*
X120142000Y-96869039D01*
X120142000Y-93980000D01*
X125158057Y-93980000D01*
X125185764Y-94261309D01*
X125267818Y-94531808D01*
X125401068Y-94781101D01*
X125580392Y-94999608D01*
X125798899Y-95178932D01*
X125926741Y-95247265D01*
X125697161Y-95397399D01*
X125495500Y-95595105D01*
X125336285Y-95828354D01*
X125225633Y-96088182D01*
X125208096Y-96170961D01*
X125330085Y-96393000D01*
X126873000Y-96393000D01*
X126873000Y-96373000D01*
X127127000Y-96373000D01*
X127127000Y-96393000D01*
X128669915Y-96393000D01*
X128791904Y-96170961D01*
X128774367Y-96088182D01*
X128663715Y-95828354D01*
X128504500Y-95595105D01*
X128302839Y-95397399D01*
X128073259Y-95247265D01*
X128201101Y-95178932D01*
X128419608Y-94999608D01*
X128598932Y-94781101D01*
X128620901Y-94740000D01*
X129225199Y-94740000D01*
X131516205Y-97031008D01*
X131539999Y-97060001D01*
X131568992Y-97083795D01*
X131568996Y-97083799D01*
X131639685Y-97141811D01*
X131655724Y-97154974D01*
X131787753Y-97225546D01*
X131931014Y-97269003D01*
X132042667Y-97280000D01*
X132042676Y-97280000D01*
X132079999Y-97283676D01*
X132117322Y-97280000D01*
X132999099Y-97280000D01*
X133021068Y-97321101D01*
X133200392Y-97539608D01*
X133418899Y-97718932D01*
X133668192Y-97852182D01*
X133938691Y-97934236D01*
X134149508Y-97955000D01*
X135090492Y-97955000D01*
X135301309Y-97934236D01*
X135571808Y-97852182D01*
X135821101Y-97718932D01*
X136039608Y-97539608D01*
X136218932Y-97321101D01*
X136240901Y-97280000D01*
X150911928Y-97280000D01*
X150911928Y-97370000D01*
X150924188Y-97494482D01*
X150960498Y-97614180D01*
X151019463Y-97724494D01*
X151098815Y-97821185D01*
X151195506Y-97900537D01*
X151305820Y-97959502D01*
X151425518Y-97995812D01*
X151550000Y-98008072D01*
X153250000Y-98008072D01*
X153374482Y-97995812D01*
X153494180Y-97959502D01*
X153604494Y-97900537D01*
X153701185Y-97821185D01*
X153780537Y-97724494D01*
X153839502Y-97614180D01*
X153863966Y-97533534D01*
X153939731Y-97617588D01*
X154173080Y-97791641D01*
X154435901Y-97916825D01*
X154583110Y-97961476D01*
X154813000Y-97840155D01*
X154813000Y-96647000D01*
X155067000Y-96647000D01*
X155067000Y-97840155D01*
X155296890Y-97961476D01*
X155444099Y-97916825D01*
X155706920Y-97791641D01*
X155940269Y-97617588D01*
X156135178Y-97401355D01*
X156284157Y-97151252D01*
X156381481Y-96876891D01*
X156260814Y-96647000D01*
X155067000Y-96647000D01*
X154813000Y-96647000D01*
X154793000Y-96647000D01*
X154793000Y-96393000D01*
X154813000Y-96393000D01*
X154813000Y-95199845D01*
X155067000Y-95199845D01*
X155067000Y-96393000D01*
X156260814Y-96393000D01*
X156381481Y-96163109D01*
X156284157Y-95888748D01*
X156135178Y-95638645D01*
X155940269Y-95422412D01*
X155706920Y-95248359D01*
X155444099Y-95123175D01*
X155296890Y-95078524D01*
X155067000Y-95199845D01*
X154813000Y-95199845D01*
X154583110Y-95078524D01*
X154435901Y-95123175D01*
X154173080Y-95248359D01*
X153939731Y-95422412D01*
X153863966Y-95506466D01*
X153839502Y-95425820D01*
X153780537Y-95315506D01*
X153701185Y-95218815D01*
X153604494Y-95139463D01*
X153494180Y-95080498D01*
X153374482Y-95044188D01*
X153250000Y-95031928D01*
X151550000Y-95031928D01*
X151425518Y-95044188D01*
X151305820Y-95080498D01*
X151195506Y-95139463D01*
X151098815Y-95218815D01*
X151019463Y-95315506D01*
X150960498Y-95425820D01*
X150924188Y-95545518D01*
X150911928Y-95670000D01*
X150911928Y-95760000D01*
X136240901Y-95760000D01*
X136218932Y-95718899D01*
X136039608Y-95500392D01*
X135821101Y-95321068D01*
X135693259Y-95252735D01*
X135922839Y-95102601D01*
X136124500Y-94904895D01*
X136283715Y-94671646D01*
X136394367Y-94411818D01*
X136411904Y-94329039D01*
X136289915Y-94107000D01*
X134747000Y-94107000D01*
X134747000Y-94127000D01*
X134493000Y-94127000D01*
X134493000Y-94107000D01*
X132950085Y-94107000D01*
X132828096Y-94329039D01*
X132845633Y-94411818D01*
X132956285Y-94671646D01*
X133115500Y-94904895D01*
X133317161Y-95102601D01*
X133546741Y-95252735D01*
X133418899Y-95321068D01*
X133200392Y-95500392D01*
X133021068Y-95718899D01*
X132999099Y-95760000D01*
X132394803Y-95760000D01*
X130103804Y-93469003D01*
X130080001Y-93439999D01*
X129964276Y-93345026D01*
X129832247Y-93274454D01*
X129688986Y-93230997D01*
X129577333Y-93220000D01*
X129577322Y-93220000D01*
X129540000Y-93216324D01*
X129502678Y-93220000D01*
X128620901Y-93220000D01*
X128598932Y-93178899D01*
X128419608Y-92960392D01*
X128306518Y-92867581D01*
X128324482Y-92865812D01*
X128444180Y-92829502D01*
X128554494Y-92770537D01*
X128651185Y-92691185D01*
X128730537Y-92594494D01*
X128789502Y-92484180D01*
X128825812Y-92364482D01*
X128838072Y-92240000D01*
X128838072Y-91440000D01*
X132778057Y-91440000D01*
X132805764Y-91721309D01*
X132887818Y-91991808D01*
X133021068Y-92241101D01*
X133200392Y-92459608D01*
X133418899Y-92638932D01*
X133546741Y-92707265D01*
X133317161Y-92857399D01*
X133115500Y-93055105D01*
X132956285Y-93288354D01*
X132845633Y-93548182D01*
X132828096Y-93630961D01*
X132950085Y-93853000D01*
X134493000Y-93853000D01*
X134493000Y-93833000D01*
X134747000Y-93833000D01*
X134747000Y-93853000D01*
X136289915Y-93853000D01*
X136411904Y-93630961D01*
X136394367Y-93548182D01*
X136283715Y-93288354D01*
X136124500Y-93055105D01*
X135922839Y-92857399D01*
X135693259Y-92707265D01*
X135821101Y-92638932D01*
X136039608Y-92459608D01*
X136218932Y-92241101D01*
X136240901Y-92200000D01*
X138115199Y-92200000D01*
X140406205Y-94491008D01*
X140429999Y-94520001D01*
X140458992Y-94543795D01*
X140458996Y-94543799D01*
X140529685Y-94601811D01*
X140545724Y-94614974D01*
X140677753Y-94685546D01*
X140821014Y-94729003D01*
X140932667Y-94740000D01*
X140932676Y-94740000D01*
X140969999Y-94743676D01*
X141007322Y-94740000D01*
X142171687Y-94740000D01*
X142317688Y-94958505D01*
X142531495Y-95172312D01*
X142782905Y-95340299D01*
X143062257Y-95456011D01*
X143358816Y-95515000D01*
X143661184Y-95515000D01*
X143957743Y-95456011D01*
X144237095Y-95340299D01*
X144488505Y-95172312D01*
X144554944Y-95105873D01*
X144560498Y-95124180D01*
X144619463Y-95234494D01*
X144698815Y-95331185D01*
X144795506Y-95410537D01*
X144905820Y-95469502D01*
X145025518Y-95505812D01*
X145150000Y-95518072D01*
X146950000Y-95518072D01*
X147074482Y-95505812D01*
X147194180Y-95469502D01*
X147304494Y-95410537D01*
X147401185Y-95331185D01*
X147480537Y-95234494D01*
X147539502Y-95124180D01*
X147575812Y-95004482D01*
X147588072Y-94880000D01*
X147588072Y-94740000D01*
X147917678Y-94740000D01*
X147955000Y-94743676D01*
X147992322Y-94740000D01*
X147992333Y-94740000D01*
X148103986Y-94729003D01*
X148247247Y-94685546D01*
X148379276Y-94614974D01*
X148495001Y-94520001D01*
X148518804Y-94490997D01*
X150809803Y-92200000D01*
X151181957Y-92200000D01*
X151285363Y-92354759D01*
X151485241Y-92554637D01*
X151720273Y-92711680D01*
X151981426Y-92819853D01*
X152258665Y-92875000D01*
X152541335Y-92875000D01*
X152818574Y-92819853D01*
X153079727Y-92711680D01*
X153314759Y-92554637D01*
X153514637Y-92354759D01*
X153671680Y-92119727D01*
X153779853Y-91858574D01*
X153793684Y-91789039D01*
X161168096Y-91789039D01*
X161208754Y-91923087D01*
X161328963Y-92177420D01*
X161496481Y-92403414D01*
X161704869Y-92592385D01*
X161946119Y-92737070D01*
X162210960Y-92831909D01*
X162433000Y-92710624D01*
X162433000Y-91567000D01*
X162687000Y-91567000D01*
X162687000Y-92710624D01*
X162909040Y-92831909D01*
X163173881Y-92737070D01*
X163415131Y-92592385D01*
X163623519Y-92403414D01*
X163791037Y-92177420D01*
X163911246Y-91923087D01*
X163951904Y-91789039D01*
X163829915Y-91567000D01*
X162687000Y-91567000D01*
X162433000Y-91567000D01*
X161290085Y-91567000D01*
X161168096Y-91789039D01*
X153793684Y-91789039D01*
X153835000Y-91581335D01*
X153835000Y-91298665D01*
X153793685Y-91090961D01*
X161168096Y-91090961D01*
X161290085Y-91313000D01*
X162433000Y-91313000D01*
X162433000Y-90169376D01*
X162687000Y-90169376D01*
X162687000Y-91313000D01*
X163829915Y-91313000D01*
X163951904Y-91090961D01*
X163911246Y-90956913D01*
X163791037Y-90702580D01*
X163623519Y-90476586D01*
X163415131Y-90287615D01*
X163173881Y-90142930D01*
X162909040Y-90048091D01*
X162687000Y-90169376D01*
X162433000Y-90169376D01*
X162210960Y-90048091D01*
X161946119Y-90142930D01*
X161704869Y-90287615D01*
X161496481Y-90476586D01*
X161328963Y-90702580D01*
X161208754Y-90956913D01*
X161168096Y-91090961D01*
X153793685Y-91090961D01*
X153779853Y-91021426D01*
X153671680Y-90760273D01*
X153514637Y-90525241D01*
X153314759Y-90325363D01*
X153079727Y-90168320D01*
X152818574Y-90060147D01*
X152541335Y-90005000D01*
X152258665Y-90005000D01*
X151981426Y-90060147D01*
X151720273Y-90168320D01*
X151485241Y-90325363D01*
X151285363Y-90525241D01*
X151181957Y-90680000D01*
X150532322Y-90680000D01*
X150494999Y-90676324D01*
X150457676Y-90680000D01*
X150457667Y-90680000D01*
X150346014Y-90690997D01*
X150202753Y-90734454D01*
X150070724Y-90805026D01*
X150070722Y-90805027D01*
X150070723Y-90805027D01*
X149983996Y-90876201D01*
X149983992Y-90876205D01*
X149954999Y-90899999D01*
X149931205Y-90928992D01*
X147640199Y-93220000D01*
X147588072Y-93220000D01*
X147588072Y-93080000D01*
X147575812Y-92955518D01*
X147539502Y-92835820D01*
X147480537Y-92725506D01*
X147401185Y-92628815D01*
X147304494Y-92549463D01*
X147194180Y-92490498D01*
X147074482Y-92454188D01*
X146950000Y-92441928D01*
X145150000Y-92441928D01*
X145025518Y-92454188D01*
X144905820Y-92490498D01*
X144795506Y-92549463D01*
X144698815Y-92628815D01*
X144619463Y-92725506D01*
X144560498Y-92835820D01*
X144554944Y-92854127D01*
X144488505Y-92787688D01*
X144237095Y-92619701D01*
X143957743Y-92503989D01*
X143661184Y-92445000D01*
X143358816Y-92445000D01*
X143062257Y-92503989D01*
X142782905Y-92619701D01*
X142531495Y-92787688D01*
X142317688Y-93001495D01*
X142171687Y-93220000D01*
X141284803Y-93220000D01*
X138993804Y-90929003D01*
X138970001Y-90899999D01*
X138854276Y-90805026D01*
X138722247Y-90734454D01*
X138578986Y-90690997D01*
X138467333Y-90680000D01*
X138467322Y-90680000D01*
X138430000Y-90676324D01*
X138392678Y-90680000D01*
X136240901Y-90680000D01*
X136218932Y-90638899D01*
X136039608Y-90420392D01*
X135821101Y-90241068D01*
X135571808Y-90107818D01*
X135301309Y-90025764D01*
X135090492Y-90005000D01*
X134149508Y-90005000D01*
X133938691Y-90025764D01*
X133668192Y-90107818D01*
X133418899Y-90241068D01*
X133200392Y-90420392D01*
X133021068Y-90638899D01*
X132887818Y-90888192D01*
X132805764Y-91158691D01*
X132778057Y-91440000D01*
X128838072Y-91440000D01*
X128838072Y-90640000D01*
X128825812Y-90515518D01*
X128789502Y-90395820D01*
X128730537Y-90285506D01*
X128651185Y-90188815D01*
X128554494Y-90109463D01*
X128444180Y-90050498D01*
X128324482Y-90014188D01*
X128200000Y-90001928D01*
X125800000Y-90001928D01*
X125675518Y-90014188D01*
X125555820Y-90050498D01*
X125445506Y-90109463D01*
X125348815Y-90188815D01*
X125269463Y-90285506D01*
X125210498Y-90395820D01*
X125174188Y-90515518D01*
X125161928Y-90640000D01*
X125161928Y-92240000D01*
X125174188Y-92364482D01*
X125210498Y-92484180D01*
X125269463Y-92594494D01*
X125348815Y-92691185D01*
X125445506Y-92770537D01*
X125555820Y-92829502D01*
X125675518Y-92865812D01*
X125693482Y-92867581D01*
X125580392Y-92960392D01*
X125401068Y-93178899D01*
X125267818Y-93428192D01*
X125185764Y-93698691D01*
X125158057Y-93980000D01*
X120142000Y-93980000D01*
X120142000Y-54102000D01*
X169418000Y-54102000D01*
X169418000Y-98298000D01*
M02*
